/vscmnt/brussel_pixiu_data/_data_brussel/112/vsc11236/PredSimResults/SUBJ07mtu3D/weighted-trackIG/worker_01.mot
version=1
nRows=7
nColumns=50
inDegrees=yes
endheader
                time	         pelvis_tilt	         pelvis_list	     pelvis_rotation	           pelvis_tx	           pelvis_ty	           pelvis_tz	       hip_flexion_r	     hip_adduction_r	      hip_rotation_r	        knee_angle_r	       ankle_angle_r	         mtp_angle_r	       hip_flexion_l	     hip_adduction_l	      hip_rotation_l	        knee_angle_l	       ankle_angle_l	         mtp_angle_l	    lumbar_extension	      lumbar_bending	     lumbar_rotation	 ercspn_r/activation	 intobl_r/activation	 extobl_r/activation	    abd_r/activation	    add_r/activation	hamstrings_r/activation	bifemsh_r/activation	glut_max_r/activation	iliopsoas_r/activation	rect_fem_r/activation	  vasti_r/activation	gastroc_r/activation	 soleus_r/activation	tib_ant_r/activation	 ercspn_l/activation	 intobl_l/activation	 extobl_l/activation	    abd_l/activation	    add_l/activation	hamstrings_l/activation	bifemsh_l/activation	glut_max_l/activation	iliopsoas_l/activation	rect_fem_l/activation	  vasti_l/activation	gastroc_l/activation	 soleus_l/activation	tib_ant_l/activation	
          0.54613457	         -6.16515402	          3.84243734	         -8.44945293	          0.69359091	          0.84575030	          0.01106533	        -13.29056212	         -4.49078531	          4.50653264	         -7.63308323	          8.32718362	         27.74711888	         30.71053132	          0.18928742	         -6.14100240	         -3.35842154	          7.52145528	          0.25144883	         -6.92572411	         -2.26532450	          3.71036208	          0.03819951	          0.00999999	          0.01000000	          0.03559452	          0.03895194	          0.02805392	          0.13977936	          0.02727744	          0.36723409	          0.01000003	          0.01000002	          0.25815275	          0.25439170	          0.01952252	          0.10041729	          0.17820214	          0.02658497	          0.01331120	          0.12069015	          0.06469726	          0.21072737	          0.01000002	          0.07440582	          0.01000003	          0.01000001	          0.01526969	          0.01000000	          0.27091694	
          0.55705727	         -6.22746866	          3.70572968	         -8.32439610	          0.70980177	          0.84393526	          0.01082991	        -13.31021347	         -4.33707524	          3.95856049	         -9.58448250	          7.60692467	         29.47059771	         30.76881963	          0.37943233	         -5.23346012	         -5.12135261	          7.18003975	          0.24742463	         -6.73824903	         -2.69845037	          3.80901313	          0.09414292	          0.01000000	          0.01000007	          0.03011266	          0.08337558	          0.02373341	          0.11825216	          0.02307648	          0.37727357	          0.01000003	          0.01000016	          0.21839505	          0.23611485	          0.01651589	          0.08495219	          0.15075799	          0.02249066	          0.01126116	          0.17455250	          0.05901199	          0.17827360	          0.07838690	          0.06294670	          0.01000003	          0.01000000	          0.02307579	          0.01761170	          0.27754628	
          0.56797996	         -6.27360088	          3.57217417	         -8.14387075	          0.72626672	          0.84227029	          0.01056061	        -13.14678740	         -4.17206233	          3.35364034	        -11.93088285	          6.78546871	         31.09211428	         30.64098691	          0.54525837	         -4.35496769	         -6.76819744	          6.79457423	          0.23788059	         -6.53753898	         -3.15405798	          3.87945364	          0.12086160	          0.00999999	          0.01000000	          0.02547506	          0.07053508	          0.02007830	          0.10004034	          0.01952251	          0.36176613	          0.01000002	          0.01000000	          0.18476038	          0.20343142	          0.01397230	          0.07887467	          0.12754000	          0.01902691	          0.08382103	          0.17268888	          0.06187482	          0.15081799	          0.08854545	          0.05325238	          0.01000000	          0.00999999	          0.01952193	          0.01489935	          0.32681473	
          0.57890265	         -6.30573800	          3.43746106	         -7.91013004	          0.74276917	          0.84094042	          0.01020056	        -12.72635023	         -4.00029300	          2.70661340	        -14.75730040	          5.82564466	         32.48247936	         30.37002787	          0.72734301	         -3.56822978	         -8.15767353	          6.30908909	          0.22202002	         -6.34656086	         -3.61376822	          3.92331845	          0.15531604	          0.00999999	          0.01000000	          0.02155168	          0.08050602	          0.01698611	          0.08463329	          0.01651588	          0.34138287	          0.01000001	          0.01000000	          0.15630572	          0.17210127	          0.01182045	          0.08962045	          0.10789777	          0.01609661	          0.13077752	          0.18775087	          0.05548975	          0.12759076	          0.12875656	          0.04505107	          0.01000001	          0.01000000	          0.01651539	          0.01260473	          0.34943596	
          0.58982534	         -6.32425225	          3.30779699	         -7.62822218	          0.75911973	          0.84010034	          0.00975790	        -12.00271867	         -3.83593384	          2.01384734	        -18.10019045	          4.72138703	         33.40853796	         30.04253435	          0.92951325	         -2.88088466	         -9.46679194	          5.91577847	          0.20724273	         -6.18094341	         -4.08200546	          3.93994202	          0.18369522	          0.00999999	          0.01000000	          0.01823254	          0.08716745	          0.01437013	          0.07159906	          0.01397230	          0.29901803	          0.01000000	          0.00999999	          0.13223333	          0.14559623	          0.01000000	          0.08613164	          0.09128060	          0.01361759	          0.15721034	          0.18896131	          0.04818783	          0.10794071	          0.14340012	          0.03811282	          0.01000001	          0.03409244	          0.01397188	          0.01066350	          0.37039451	
          0.60074803	         -6.33002678	          3.18186065	         -7.29969687	          0.77521160	          0.83986224	          0.00924773	        -10.96643178	         -3.69016627	          1.26784600	        -21.93523435	          3.44705901	         33.63762221	         29.68081649	          1.14061437	         -2.29544051	        -10.72427314	          5.65215010	          0.19139595	         -6.04765831	         -4.55416843	          3.92844723	          0.20398446	          0.00999999	          0.01000000	          0.01542458	          0.09983869	          0.01215702	          0.06057223	          0.01182044	          0.25296674	          0.01000000	          0.00999999	          0.11186828	          0.12317319	          0.00999999	          0.07286668	          0.07722262	          0.01152037	          0.16836401	          0.16684154	          0.04912193	          0.09131694	          0.13495987	          0.03224313	          0.01000000	          0.10839156	          0.01182010	          0.01000002	          0.37822300	
          0.61167072	         -6.32606540	          3.05045505	         -6.92345539	          0.79098712	          0.84033266	          0.00869478	         -9.63742290	         -3.56495779	          0.47750888	        -26.14634394	          1.81721108	         33.18164935	         29.23376339	          1.34711745	         -1.79691174	        -11.82877502	          5.55052527	          0.17567571	         -5.94984517	         -5.01786956	          3.88800750	          0.20701495	          0.00999999	          0.01000000	          0.01304906	          0.11416942	          0.01028475	          0.05320812	          0.01000000	          0.21400773	          0.01000000	          0.00999999	          0.09463962	          0.10420348	          0.01000000	          0.06164460	          0.06532969	          0.01000000	          0.17174369	          0.14114654	          0.04950667	          0.07725337	          0.11941621	          0.02727742	          0.01000001	          0.16667750	          0.01000001	          0.01000001	          0.37364533	
